<?xml version="1.0" encoding="UTF-8" standalone="no"?>
<!DOCTYPE svg PUBLIC "-//W3C//DTD SVG 1.1//EN" "http://www.w3.org/Graphics/SVG/1.1/DTD/svg11.dtd">
<!-- Generated by Microsoft Visio, SVG Export HomePage.svg Page-1 -->
<svg xmlns="http://www.w3.org/2000/svg" xmlns:xlink="http://www.w3.org/1999/xlink" xmlns:ev="http://www.w3.org/2001/xml-events"
		xmlns:v="http://schemas.microsoft.com/visio/2003/SVGExtensions/" width="8.5in" height="11in" viewBox="0 0 612 792"
		xml:space="preserve" color-interpolation-filters="sRGB" class="st12">
	<v:documentProperties v:langID="1033" v:viewMarkup="false">
		<v:userDefs>
			<v:ud v:nameU="msvNoAutoConnect" v:val="VT0(1):26"/>
			<v:ud v:nameU="msvConvertTheme"/>
		</v:userDefs>
	</v:documentProperties>

	<style type="text/css">
	<![CDATA[
		.st1 {fill:#ffffff;stroke:#a5a5a5;stroke-linecap:round;stroke-linejoin:round;stroke-width:0.5}
		.st2 {fill:#ffffff;stroke:#727272;stroke-linecap:round;stroke-linejoin:round;stroke-width:0.5}
		.st3 {fill:#000000;font-family:Calibri;font-size:0.666664em}
		.st4 {fill:none;stroke:none;stroke-linecap:round;stroke-linejoin:round;stroke-width:0.75}
		.st5 {fill:#0000ff;font-family:Calibri;font-size:0.75em}
		.st6 {font-size:1em;text-decoration:underline}
		.st7 {fill:#ffffff;stroke:#000000;stroke-linecap:round;stroke-linejoin:round;stroke-width:0.24}
		.st8 {fill:#595959;stroke:none;stroke-linecap:butt;stroke-width:0.75}
		.st9 {stroke:#000000;stroke-linecap:round;stroke-linejoin:round;stroke-width:0.75}
		.st10 {fill:#000000;font-family:Calibri;font-size:1.00001em}
		.st11 {font-size:1em}
		.st12 {fill:none;fill-rule:evenodd;font-size:12px;overflow:visible;stroke-linecap:square;stroke-miterlimit:3}
	]]>
	</style>

	<g v:mID="0" v:index="1" v:groupContext="foregroundPage">
		<title>Page-1</title>
		<v:pageProperties v:drawingScale="1" v:pageScale="1" v:drawingUnits="0" v:shadowOffsetX="9" v:shadowOffsetY="-9"/>
		<g id="group10-1" transform="translate(18,-18)" v:mID="10" v:groupContext="group">
			<v:userDefs>
				<v:ud v:nameU="msvStructureType" v:prompt="" v:val="VT4(Container)"/>
				<v:ud v:nameU="msvShapeCategories" v:prompt="" v:val="VT4(Panel)"/>
				<v:ud v:nameU="visVersion" v:prompt="" v:val="VT0(14):26"/>
			</v:userDefs>
			<title>Panel.10</title>
			<g id="shape10-2" v:mID="10" v:groupContext="groupContent">
				<rect x="0" y="774" width="576" height="18" class="st1"/>
			</g>
		</g>
		<g id="group3-4" transform="translate(18,-648)" v:mID="3" v:groupContext="group">
			<v:userDefs>
				<v:ud v:nameU="msvStructureType" v:prompt="" v:val="VT4(Container)"/>
				<v:ud v:nameU="msvShapeCategories" v:prompt="" v:val="VT4(Panel)"/>
				<v:ud v:nameU="visVersion" v:prompt="" v:val="VT0(14):26"/>
			</v:userDefs>
			<title>Panel.3</title>
			<g id="shape3-5" v:mID="3" v:groupContext="groupContent">
				<rect x="0" y="774" width="576" height="18" class="st1"/>
			</g>
		</g>
		<g id="group43-7" transform="translate(54,-36)" v:mID="43" v:groupContext="group">
			<v:userDefs>
				<v:ud v:nameU="msvStructureType" v:prompt="" v:val="VT4(Container)"/>
				<v:ud v:nameU="msvShapeCategories" v:prompt="" v:val="VT4(Panel)"/>
				<v:ud v:nameU="visVersion" v:prompt="" v:val="VT0(15):26"/>
			</v:userDefs>
			<title>Panel.19</title>
			<g id="shape43-8" v:mID="43" v:groupContext="groupContent">
				<rect x="0" y="180" width="504" height="612" class="st1"/>
			</g>
		</g>
		<g id="group121-10" transform="translate(319.5,-279)" v:mID="121" v:groupContext="group">
			<v:userDefs>
				<v:ud v:nameU="msvStructureType" v:prompt="" v:val="VT4(Container)"/>
				<v:ud v:nameU="msvShapeCategories" v:prompt="" v:val="VT4(Panel)"/>
				<v:ud v:nameU="visVersion" v:prompt="" v:val="VT0(15):26"/>
			</v:userDefs>
			<title>Panel.19.121</title>
			<g id="shape121-11" v:mID="121" v:groupContext="groupContent">
				<rect x="0" y="585" width="216" height="207" class="st1"/>
			</g>
		</g>
		<g id="shape18-13" v:mID="18" v:groupContext="shape" transform="translate(252,-21.6)">
			<title>Text box.18</title>
			<desc>Copyright Kevin and Josh</desc>
			<v:userDefs>
				<v:ud v:nameU="visVersion" v:prompt="" v:val="VT0(14):26"/>
			</v:userDefs>
			<v:textBlock v:margins="rect(7.2,7.2,7.2,7.2)"/>
			<v:textRect cx="54" cy="786.6" width="108" height="10.8"/>
			<rect x="0" y="781.2" width="108" height="10.8" class="st2"/>
			<text x="7.2" y="789" class="st3" v:langID="1033"><v:paragraph/><v:tabList/>Copyright Kevin and Josh</text>		</g>
		<g id="shape11-16" v:mID="11" v:groupContext="shape" transform="translate(18,-18)">
			<title>Hyperlink</title>
			<desc>Like on Facebook</desc>
			<v:userDefs>
				<v:ud v:nameU="visVersion" v:prompt="" v:val="VT0(14):26"/>
			</v:userDefs>
			<v:textBlock v:margins="rect(4,4,4,4)"/>
			<v:textRect cx="51.75" cy="783" width="103.5" height="18"/>
			<rect x="0" y="774" width="103.5" height="18" class="st4"/>
			<text x="4" y="785.7" class="st5" v:langID="1033"><v:paragraph/><v:tabList/><tspan class="st6">Like on Facebook</tspan></text>		</g>
		<g id="shape15-20" v:mID="15" v:groupContext="shape" transform="translate(83.25,-18)">
			<title>Hyperlink.15</title>
			<desc>Follow on Twitter</desc>
			<v:userDefs>
				<v:ud v:nameU="visVersion" v:prompt="" v:val="VT0(14):26"/>
			</v:userDefs>
			<v:textBlock v:margins="rect(4,4,4,4)"/>
			<v:textRect cx="51.75" cy="783" width="103.5" height="18"/>
			<rect x="0" y="774" width="103.5" height="18" class="st4"/>
			<text x="4" y="785.7" class="st5" v:langID="1033"><v:paragraph/><v:tabList/><tspan class="st6">Follow on Twitter</tspan></text>		</g>
		<g id="shape16-24" v:mID="16" v:groupContext="shape" transform="translate(153,-18)">
			<title>Hyperlink.16</title>
			<desc>Post on Pintrest</desc>
			<v:userDefs>
				<v:ud v:nameU="visVersion" v:prompt="" v:val="VT0(14):26"/>
			</v:userDefs>
			<v:textBlock v:margins="rect(4,4,4,4)"/>
			<v:textRect cx="51.75" cy="783" width="103.5" height="18"/>
			<rect x="0" y="774" width="103.5" height="18" class="st4"/>
			<text x="4" y="785.7" class="st5" v:langID="1033"><v:paragraph/><v:tabList/><tspan class="st6">Post on Pintrest</tspan></text>		</g>
		<g id="shape5-28" v:mID="5" v:groupContext="shape" transform="translate(45,-648)">
			<title>Hyperlink.5</title>
			<desc>Home</desc>
			<v:userDefs>
				<v:ud v:nameU="visVersion" v:prompt="" v:val="VT0(14):26"/>
			</v:userDefs>
			<v:textBlock v:margins="rect(4,4,4,4)"/>
			<v:textRect cx="51.75" cy="783" width="103.5" height="18"/>
			<rect x="0" y="774" width="103.5" height="18" class="st4"/>
			<text x="4" y="785.7" class="st5" v:langID="1033"><v:paragraph/><v:tabList/><tspan class="st6">Home</tspan></text>		</g>
		<g id="shape6-32" v:mID="6" v:groupContext="shape" transform="translate(400.5,-648)">
			<title>Hyperlink.6</title>
			<desc>About Us</desc>
			<v:userDefs>
				<v:ud v:nameU="visVersion" v:prompt="" v:val="VT0(14):26"/>
			</v:userDefs>
			<v:textBlock v:margins="rect(4,4,4,4)"/>
			<v:textRect cx="51.75" cy="783" width="103.5" height="18"/>
			<rect x="0" y="774" width="103.5" height="18" class="st4"/>
			<text x="4" y="785.7" class="st5" v:langID="1033"><v:paragraph/><v:tabList/><tspan class="st6">About Us</tspan></text>		</g>
		<g id="shape7-36" v:mID="7" v:groupContext="shape" transform="translate(490.5,-648)">
			<title>Hyperlink.7</title>
			<desc>Contact Us</desc>
			<v:userDefs>
				<v:ud v:nameU="visVersion" v:prompt="" v:val="VT0(14):26"/>
			</v:userDefs>
			<v:textBlock v:margins="rect(4,4,4,4)"/>
			<v:textRect cx="51.75" cy="783" width="103.5" height="18"/>
			<rect x="0" y="774" width="103.5" height="18" class="st4"/>
			<text x="4" y="785.7" class="st5" v:langID="1033"><v:paragraph/><v:tabList/><tspan class="st6">Contact Us</tspan></text>		</g>
		<g id="shape8-40" v:mID="8" v:groupContext="shape" transform="translate(130.5,-648)">
			<title>Hyperlink.8</title>
			<desc>Product Catalog</desc>
			<v:userDefs>
				<v:ud v:nameU="visVersion" v:prompt="" v:val="VT0(14):26"/>
			</v:userDefs>
			<v:textBlock v:margins="rect(4,4,4,4)"/>
			<v:textRect cx="51.75" cy="783" width="103.5" height="18"/>
			<rect x="0" y="774" width="103.5" height="18" class="st4"/>
			<text x="4" y="785.7" class="st5" v:langID="1033"><v:paragraph/><v:tabList/><tspan class="st6">Product Catalog</tspan></text>		</g>
		<g id="shape32-44" v:mID="32" v:groupContext="shape" transform="translate(18,-666)">
			<title>Trapezoid</title>
			<v:userDefs>
				<v:ud v:nameU="visVersion" v:prompt="" v:val="VT0(15):26"/>
			</v:userDefs>
			<path d="M0 792 L576 792 L518.4 738 L57.6 738 L0 792 Z" class="st7"/>
		</g>
		<g id="shape33-46" v:mID="33" v:groupContext="shape" transform="translate(243,-639)">
			<title>Circle</title>
			<v:userDefs>
				<v:ud v:nameU="visVersion" v:val="VT0(15):26"/>
			</v:userDefs>
			<path d="M0 729 A63 63 0 0 1 126 729 A63 63 0 1 1 0 729 Z" class="st7"/>
		</g>
		<g id="shape34-48" v:mID="34" v:groupContext="shape" transform="translate(570.24,-21.6)">
			<title>Mail</title>
			<v:userDefs>
				<v:ud v:nameU="msvShapeCategories" v:prompt="" v:val="VT4(Icon)"/>
				<v:ud v:nameU="visVersion" v:prompt="" v:val="VT0(15):26"/>
			</v:userDefs>
			<path d="M0 783.36 L0 792 L11.52 792 L11.52 783.36 L0 783.36 ZM0.8 791.28 L4.1 787.65 L5.12 788.68 a0.900623 0.900623
						 -180 0 0 1.2726 0 L7.42 787.65 L10.72 791.28 L0.8 791.28 ZM10.8 790.79 L7.71 787.36 L10.8 784.27 L10.8 790.79
						 ZM10.48 784.08 L6.14 788.42 a0.547731 0.547731 0 0 1 -0.76356 -1.13687E-013 L1.03 784.08 L10.48 784.08 ZM3.81
						 787.36 L0.72 790.79 L0.72 784.27 L3.81 787.36 Z" class="st8"/>
		</g>
		<g id="shape35-50" v:mID="35" v:groupContext="shape" transform="translate(295.714,-693)">
			<title>Home</title>
			<v:userDefs>
				<v:ud v:nameU="msvShapeCategories" v:prompt="" v:val="VT4(Icon)"/>
				<v:ud v:nameU="visVersion" v:prompt="" v:val="VT0(15):26"/>
			</v:userDefs>
			<path d="M10.29 774 L5.79 778.51 L5.79 775.93 L4.5 775.93 L4.5 779.8 L0 784.32 L0.96 785.25 L2.57 783.64 L2.57 792 L18
						 792 L18 783.64 L19.61 785.25 L20.57 784.32 L10.29 774 ZM14.14 790.71 L10.93 790.71 L10.93 783.64 L14.14
						 783.64 L14.14 790.71 ZM16.71 790.71 L14.79 790.71 L14.79 783 L10.29 783 L10.29 790.71 L3.86 790.71 L3.86
						 782.36 L10.29 775.93 L16.71 782.36 L16.71 790.71 ZM5.79 786.21 L9 786.21 L9 783 L5.79 783 L5.79 786.21 ZM6.43
						 783.64 L8.36 783.64 L8.36 785.57 L6.43 785.57 L6.43 783.64 ZM12.21 788.14 a0.642269 0.642269 -180 0 0 0.642857
						 -0.642857 a0.642269 0.642269 -180 0 0 -0.642857 -0.642857 a0.642269 0.642269 -180 0 0 -0.642857 0.642857
						 a0.642269 0.642269 -180 0 0 0.642857 0.642857 Z" class="st8"/>
		</g>
		<g id="shape81-52" v:mID="81" v:groupContext="shape" transform="translate(252,-522)">
			<title>Square</title>
			<v:userDefs>
				<v:ud v:nameU="visVersion" v:val="VT0(15):26"/>
			</v:userDefs>
			<rect x="0" y="684" width="108" height="108" class="st7"/>
		</g>
		<g id="shape82-54" v:mID="82" v:groupContext="shape" transform="translate(180,-549)">
			<title>Square.82</title>
			<v:userDefs>
				<v:ud v:nameU="visVersion" v:val="VT0(15):26"/>
			</v:userDefs>
			<rect x="0" y="738" width="54" height="54" class="st7"/>
		</g>
		<g id="shape83-56" v:mID="83" v:groupContext="shape" transform="translate(117,-549)">
			<title>Square.83</title>
			<v:userDefs>
				<v:ud v:nameU="visVersion" v:val="VT0(15):26"/>
			</v:userDefs>
			<rect x="0" y="738" width="54" height="54" class="st7"/>
		</g>
		<g id="shape108-58" v:mID="108" v:groupContext="shape" transform="translate(375.75,-549)">
			<title>Square.108</title>
			<v:userDefs>
				<v:ud v:nameU="visVersion" v:val="VT0(15):26"/>
			</v:userDefs>
			<rect x="0" y="738" width="54" height="54" class="st7"/>
		</g>
		<g id="shape109-60" v:mID="109" v:groupContext="shape" transform="translate(441,-549)">
			<title>Square.109</title>
			<v:userDefs>
				<v:ud v:nameU="visVersion" v:val="VT0(15):26"/>
			</v:userDefs>
			<rect x="0" y="738" width="54" height="54" class="st7"/>
		</g>
		<g id="shape110-62" v:mID="110" v:groupContext="shape" transform="translate(232.2,-567)">
			<title>Back</title>
			<v:userDefs>
				<v:ud v:nameU="msvShapeCategories" v:prompt="" v:val="VT4(Icon)"/>
				<v:ud v:nameU="visVersion" v:prompt="" v:val="VT0(15):26"/>
			</v:userDefs>
			<path d="M19.8 778.5 L19.8 787.5 L10.8 787.5 L10.8 792 L0 783.02 L10.8 774 L10.8 778.5 L19.8 778.5 Z" class="st8"/>
		</g>
		<g id="shape111-64" v:mID="111" v:groupContext="shape" transform="translate(360,-570.764)">
			<title>Forward</title>
			<v:userDefs>
				<v:ud v:nameU="msvShapeCategories" v:prompt="" v:val="VT4(Icon)"/>
				<v:ud v:nameU="visVersion" v:prompt="" v:val="VT0(15):26"/>
			</v:userDefs>
			<path d="M0 778.5 L0 787.5 L9 787.5 L9 792 L19.8 783.02 L9 774 L9 778.5 L0 778.5 Z" class="st8"/>
		</g>
		<g id="shape122-66" v:mID="122" v:groupContext="shape" transform="translate(384.597,-369.563)">
			<title>Hyperlink.17.122</title>
			<desc>Map to Dealership</desc>
			<v:userDefs>
				<v:ud v:nameU="visVersion" v:prompt="" v:val="VT0(15):26"/>
			</v:userDefs>
			<v:textBlock v:margins="rect(4,4,4,4)"/>
			<v:textRect cx="38.4034" cy="779.063" width="76.81" height="25.875"/>
			<rect x="0" y="766.125" width="76.8068" height="25.875" class="st4"/>
			<text x="4" y="781.76" class="st5" v:langID="1033"><v:paragraph/><v:tabList/><tspan class="st6">Map to Dealership</tspan></text>		</g>
		<g id="shape123-70" v:mID="123" v:groupContext="shape" transform="translate(283.5,-567)">
			<title>Hyperlink.17.123</title>
			<desc>Car Picture</desc>
			<v:userDefs>
				<v:ud v:nameU="visVersion" v:prompt="" v:val="VT0(15):26"/>
			</v:userDefs>
			<v:textBlock v:margins="rect(4,4,4,4)"/>
			<v:textRect cx="27" cy="783" width="54" height="18"/>
			<rect x="0" y="774" width="54" height="18" class="st4"/>
			<text x="4" y="785.7" class="st5" v:langID="1033"><v:paragraph/><v:tabList/><tspan class="st6">Car Picture</tspan></text>		</g>
		<g id="shape124-74" v:mID="124" v:groupContext="shape" transform="translate(184.5,-567)">
			<title>Hyperlink.124</title>
			<desc>Car Picture</desc>
			<v:userDefs>
				<v:ud v:nameU="visVersion" v:prompt="" v:val="VT0(15):26"/>
			</v:userDefs>
			<v:textBlock v:margins="rect(4,4,4,4)"/>
			<v:textRect cx="51.75" cy="783" width="103.5" height="18"/>
			<rect x="0" y="774" width="103.5" height="18" class="st4"/>
			<text x="4" y="785.7" class="st5" v:langID="1033"><v:paragraph/><v:tabList/><tspan class="st6">Car Picture</tspan></text>		</g>
		<g id="shape125-78" v:mID="125" v:groupContext="shape" transform="translate(121.5,-567)">
			<title>Hyperlink.125</title>
			<desc>Car Picture</desc>
			<v:userDefs>
				<v:ud v:nameU="visVersion" v:prompt="" v:val="VT0(15):26"/>
			</v:userDefs>
			<v:textBlock v:margins="rect(4,4,4,4)"/>
			<v:textRect cx="51.75" cy="783" width="103.5" height="18"/>
			<rect x="0" y="774" width="103.5" height="18" class="st4"/>
			<text x="4" y="785.7" class="st5" v:langID="1033"><v:paragraph/><v:tabList/><tspan class="st6">Car Picture</tspan></text>		</g>
		<g id="shape126-82" v:mID="126" v:groupContext="shape" transform="translate(380.25,-567)">
			<title>Hyperlink.126</title>
			<desc>Car Picture</desc>
			<v:userDefs>
				<v:ud v:nameU="visVersion" v:prompt="" v:val="VT0(15):26"/>
			</v:userDefs>
			<v:textBlock v:margins="rect(4,4,4,4)"/>
			<v:textRect cx="51.75" cy="783" width="103.5" height="18"/>
			<rect x="0" y="774" width="103.5" height="18" class="st4"/>
			<text x="4" y="785.7" class="st5" v:langID="1033"><v:paragraph/><v:tabList/><tspan class="st6">Car Picture</tspan></text>		</g>
		<g id="shape127-86" v:mID="127" v:groupContext="shape" transform="translate(445.5,-567)">
			<title>Hyperlink.127</title>
			<desc>Car Picture</desc>
			<v:userDefs>
				<v:ud v:nameU="visVersion" v:prompt="" v:val="VT0(15):26"/>
			</v:userDefs>
			<v:textBlock v:margins="rect(4,4,4,4)"/>
			<v:textRect cx="51.75" cy="783" width="103.5" height="18"/>
			<rect x="0" y="774" width="103.5" height="18" class="st4"/>
			<text x="4" y="785.7" class="st5" v:langID="1033"><v:paragraph/><v:tabList/><tspan class="st6">Car Picture</tspan></text>		</g>
		<g id="shape138-90" v:mID="138" v:groupContext="shape" transform="translate(1008,576) rotate(90)">
			<title>Sheet.138</title>
			<path d="M0 792 L144 792" class="st9"/>
		</g>
		<g id="shape139-93" v:mID="139" v:groupContext="shape" transform="translate(1179,576) rotate(90)">
			<title>Sheet.139</title>
			<path d="M0 792 L144 792" class="st9"/>
		</g>
		<g id="shape140-96" v:mID="140" v:groupContext="shape" transform="translate(90,-135)">
			<title>Sheet.140</title>
			<desc>(site navigation)</desc>
			<v:textBlock v:margins="rect(4,4,4,4)"/>
			<v:textRect cx="43.25" cy="782" width="86.51" height="20"/>
			<rect x="0" y="772" width="86.5" height="20" class="st4"/>
			<text x="4.02" y="785.6" class="st10" v:langID="1033"><v:paragraph v:horizAlign="1"/><v:tabList/>(site navigation)</text>		</g>
		<g id="shape141-99" v:mID="141" v:groupContext="shape" transform="translate(267.597,-135)">
			<title>Sheet.141</title>
			<desc>(fine print)</desc>
			<v:textBlock v:margins="rect(4,4,4,4)"/>
			<v:textRect cx="38.4034" cy="782" width="76.81" height="20"/>
			<rect x="0" y="772" width="76.8068" height="20" class="st4"/>
			<text x="12.28" y="785.6" class="st10" v:langID="1033"><v:paragraph v:horizAlign="1"/><v:tabList/>(fine print)</text>		</g>
		<g id="shape142-102" v:mID="142" v:groupContext="shape" transform="translate(435.5,-133)">
			<title>Sheet.142</title>
			<desc>(other links)</desc>
			<v:textBlock v:margins="rect(4,4,4,4)"/>
			<v:textRect cx="38.4034" cy="782" width="76.81" height="20"/>
			<rect x="0" y="772" width="76.8068" height="20" class="st4"/>
			<text x="9.02" y="785.6" class="st10" v:langID="1033"><v:paragraph v:horizAlign="1"/><v:tabList/>(other links)</text>		</g>
		<g id="shape143-105" v:mID="143" v:groupContext="shape" transform="translate(113,-372.5)">
			<title>Sheet.143</title>
			<desc>Marketing messages, stuff about the dealership, etc.</desc>
			<v:textBlock v:margins="rect(4,4,4,4)"/>
			<v:textRect cx="76" cy="782" width="152" height="20"/>
			<rect x="0" y="772" width="152" height="20" class="st4"/>
			<text x="11.95" y="778.4" class="st10" v:langID="1033"><v:paragraph v:horizAlign="1"/><v:tabList/>Marketing messages, stuff <tspan
						x="13.39" dy="1.2em" class="st11">about the dealership</tspan>, etc.</text>		</g>
	</g>
</svg>
